<svg viewBox="0 0 39 30" xmlns="http://www.w3.org/2000/svg"><g fill="none" fill-rule="evenodd"><path d="M30.335.002c-8.25 0-10.296 5.87-10.853 7.272C18.925 5.873 17.076-.127 8.63.002 1.722.108-.73 5.808.184 10.884c.932 5.195 6.558 10.091 9.7 12.366 2.107 1.526 6.146 4.664 8.232 6.29.779.61 1.858.613 2.642.01 2.11-1.625 6.21-4.77 8.323-6.3 3.142-2.275 8.696-7.306 9.7-12.366C39.813 5.691 37.244.002 30.335.002" fill="#D9086E"/><path d="M30.427.002c-8.277 0-10.329 5.911-10.887 7.32-.559-1.409-2.414-7.45-10.887-7.32-6.563.1-9.11 5.25-8.586 10.137 2.136 3.677 5.873 6.856 8.225 8.566 2.113 1.537 6.166 4.694 8.258 6.332a2.146 2.146 0 002.65.01c2.118-1.637 6.231-4.802 8.35-6.342 3.152-2.29 8.723-7.358 9.73-12.45.196-.987.262-1.988.196-2.967-1.402-1.956-3.718-3.286-7.05-3.286" fill="#FF1D8B"/><path d="M10.717 14.556c-.337 0-.675-.105-.964-.325-.084-.063-2.091-1.6-3.776-3.842C4.57 8.513 4.528 5.927 4.528 5.64a1.595 1.595 0 013.19-.005c.002.495.155 1.97.809 2.84a18.537 18.537 0 003.156 3.219 1.594 1.594 0 01-.966 2.863z" fill="#FFF"/></g></svg>